<svg width="256" height="42" viewBox="0 0 256 42" fill="none" xmlns="http://www.w3.org/2000/svg">
<path d="M43.6419 36.7684L49.0645 4.10498H61.5685C63.9289 4.10498 65.8322 4.47712 67.2782 5.2214C68.7242 5.95506 69.729 6.95984 70.2926 8.23575C70.8667 9.51166 71.0156 10.9577 70.7391 12.5739C70.5158 13.8923 70.0693 15.0247 69.3994 15.971C68.7402 16.9066 67.9321 17.6722 66.9752 18.2676C66.0182 18.8524 64.9922 19.2724 63.897 19.5276L63.8332 19.8466C64.9816 19.8997 66.0342 20.2506 66.9911 20.8992C67.9481 21.5478 68.6711 22.4622 69.1602 23.6424C69.6493 24.812 69.7609 26.2208 69.4951 27.8689C69.208 29.5595 68.5435 31.0799 67.5015 32.4303C66.4595 33.77 65.0454 34.8279 63.2591 35.6041C61.4834 36.3803 59.3516 36.7684 56.8636 36.7684H43.6419ZM50.3883 31.8242H56.7519C58.8891 31.8242 60.5052 31.4148 61.6004 30.5961C62.6955 29.7668 63.3495 28.7035 63.5621 27.4064C63.7216 26.4388 63.6259 25.5669 63.275 24.7907C62.9242 24.0039 62.3447 23.3872 61.5366 22.9407C60.7285 22.4835 59.7184 22.2549 58.5063 22.2549H51.9672L50.3883 31.8242ZM52.7009 17.9965H58.5541C59.5749 17.9965 60.5212 17.8104 61.3931 17.4383C62.2756 17.0555 63.0092 16.5186 63.594 15.8274C64.1894 15.1257 64.5563 14.2963 64.6945 13.3394C64.9178 12.0741 64.6519 11.0321 63.897 10.2134C63.1421 9.3947 61.8981 8.98535 60.165 8.98535H54.1682L52.7009 17.9965Z" fill="#88889B"/>
<path d="M85.4477 4.10498L80.0251 36.7684H74.2516L79.6742 4.10498H85.4477Z" fill="#88889B"/>
<path d="M98.059 37.2468C95.6454 37.2468 93.6358 36.7152 92.0303 35.6519C90.4354 34.5887 89.3137 33.0948 88.6651 31.1703C88.0165 29.2458 87.8995 27.0129 88.3142 24.4718C88.7289 21.9625 89.5582 19.7668 90.8022 17.8848C92.0569 16.0029 93.6358 14.5462 95.5391 13.5148C97.4529 12.4728 99.5954 11.9518 101.966 11.9518C104.38 11.9518 106.384 12.4888 107.979 13.5627C109.574 14.626 110.696 16.1198 111.344 18.0443C112.004 19.9688 112.126 22.2123 111.711 24.7748C111.307 27.2734 110.473 29.4584 109.207 31.3298C107.953 33.2011 106.374 34.6578 104.47 35.6998C102.567 36.7312 100.43 37.2468 98.059 37.2468ZM98.5374 32.6216C99.8772 32.6216 101.052 32.2601 102.062 31.5371C103.083 30.8035 103.918 29.82 104.566 28.5866C105.225 27.3426 105.683 25.9603 105.938 24.4399C106.172 22.9726 106.177 21.6435 105.954 20.4526C105.73 19.2511 105.252 18.2995 104.518 17.5978C103.795 16.8854 102.79 16.5292 101.504 16.5292C100.164 16.5292 98.9787 16.9013 97.9473 17.6456C96.9266 18.3793 96.0919 19.3681 95.4434 20.6121C94.7948 21.8455 94.3482 23.2224 94.1036 24.7429C93.8591 26.2102 93.8485 27.5393 94.0718 28.7301C94.295 29.921 94.7735 30.8673 95.5072 31.569C96.2408 32.2708 97.2509 32.6216 98.5374 32.6216Z" fill="#88889B"/>
<path d="M126.603 37.2468C124.158 37.2468 122.148 36.7099 120.575 35.636C119.001 34.5621 117.9 33.0788 117.273 31.1862C116.656 29.283 116.555 27.0927 116.97 24.6153C117.374 22.1273 118.209 19.9316 119.474 18.0284C120.75 16.1145 122.356 14.626 124.291 13.5627C126.226 12.4888 128.39 11.9518 130.782 11.9518C132.77 11.9518 134.466 12.3187 135.87 13.0523C137.284 13.7753 138.336 14.8014 139.027 16.1305C139.729 17.4489 140 18.9906 139.841 20.7557H134.307C134.285 19.5754 133.918 18.5919 133.206 17.8051C132.494 17.0077 131.452 16.6089 130.08 16.6089C128.889 16.6089 127.794 16.9279 126.795 17.5659C125.795 18.1932 124.95 19.097 124.259 20.2772C123.568 21.4574 123.089 22.8715 122.823 24.5196C122.547 26.1889 122.552 27.6243 122.839 28.8258C123.137 30.0167 123.674 30.9364 124.45 31.585C125.237 32.2229 126.231 32.5419 127.433 32.5419C128.283 32.5419 129.075 32.3824 129.809 32.0634C130.543 31.7338 131.186 31.2607 131.739 30.644C132.302 30.0273 132.744 29.2777 133.063 28.3952H138.581C138.145 30.1283 137.369 31.6647 136.252 33.0044C135.147 34.3335 133.775 35.3755 132.138 36.1304C130.5 36.8747 128.655 37.2468 126.603 37.2468Z" fill="#88889B"/>
<path d="M149.773 29.081L150.905 22.1113H151.83L162.309 12.2708H169.055L156.232 24.3282H155.052L149.773 29.081ZM143.25 36.7684L148.672 4.10498H154.446L149.023 36.7684H143.25ZM158.624 36.7684L152.5 25.6201L157.077 21.5531L165.53 36.7684H158.624Z" fill="#88889B"/>
<path d="M186.483 12.2708L185.733 16.7365H171.666L172.4 12.2708H186.483ZM176.834 6.40163H182.607L178.779 29.4C178.663 30.1761 178.684 30.7716 178.843 31.1862C179.013 31.5903 179.285 31.8667 179.657 32.0156C180.039 32.1644 180.47 32.2389 180.949 32.2389C181.299 32.2389 181.629 32.2123 181.937 32.1591C182.246 32.0953 182.49 32.0475 182.671 32.0156L182.926 36.5291C182.575 36.6355 182.102 36.7524 181.507 36.88C180.922 37.0076 180.22 37.082 179.402 37.1033C177.934 37.1352 176.658 36.9119 175.574 36.4334C174.5 35.9443 173.713 35.1947 173.213 34.1846C172.724 33.1639 172.613 31.888 172.878 30.3569L176.834 6.40163Z" fill="#88889B"/>
<path d="M205.896 26.4654L208.273 12.2708H214.046L209.963 36.7684H204.365L205.099 32.4143H204.844C204.078 33.7859 202.983 34.9077 201.558 35.7795C200.144 36.6514 198.517 37.0873 196.678 37.0873C195.072 37.0873 193.717 36.7312 192.611 36.0188C191.505 35.2957 190.718 34.2484 190.25 32.8768C189.793 31.4946 189.724 29.8253 190.043 27.8689L192.659 12.2708H198.432L195.976 26.9757C195.732 28.5281 195.955 29.7615 196.646 30.6759C197.348 31.5903 198.39 32.0475 199.772 32.0475C200.623 32.0475 201.478 31.8402 202.34 31.4255C203.212 31.0108 203.972 30.3941 204.62 29.5754C205.269 28.7461 205.694 27.7094 205.896 26.4654Z" fill="#88889B"/>
<path d="M224.233 37.2628C222.681 37.2628 221.331 36.9863 220.182 36.4334C219.034 35.8699 218.189 35.0406 217.646 33.9454C217.115 32.8502 216.982 31.4999 217.248 29.8944C217.482 28.5121 217.928 27.3691 218.587 26.4654C219.257 25.5616 220.076 24.8386 221.043 24.2963C222.022 23.7434 223.085 23.3287 224.233 23.0523C225.392 22.7758 226.572 22.5738 227.774 22.4462C229.241 22.2974 230.427 22.1592 231.331 22.0316C232.245 21.904 232.931 21.7126 233.388 21.4574C233.845 21.1916 234.122 20.7875 234.217 20.2453V20.1496C234.409 18.9481 234.217 18.0178 233.643 17.3585C233.069 16.6993 232.112 16.3697 230.772 16.3697C229.369 16.3697 228.189 16.678 227.232 17.2947C226.275 17.9114 225.578 18.6398 225.142 19.4797L219.911 18.7142C220.57 17.2256 221.474 15.9816 222.622 14.9821C223.771 13.972 225.095 13.2171 226.594 12.7174C228.104 12.207 229.714 11.9518 231.426 11.9518C232.596 11.9518 233.739 12.0901 234.855 12.3665C235.982 12.643 236.976 13.1002 237.838 13.7381C238.71 14.3655 239.348 15.2214 239.752 16.3059C240.166 17.3904 240.235 18.7461 239.959 20.3729L237.232 36.7684H231.681L232.256 33.4031H232.064C231.607 34.0836 231.012 34.7216 230.278 35.317C229.544 35.9018 228.672 36.375 227.662 36.7365C226.652 37.0873 225.509 37.2628 224.233 37.2628ZM226.418 33.0204C227.577 33.0204 228.619 32.7918 229.544 32.3346C230.469 31.8667 231.23 31.25 231.825 30.4845C232.42 29.7189 232.793 28.8843 232.941 27.9805L233.42 25.0938C233.207 25.2426 232.878 25.3808 232.431 25.5084C231.984 25.636 231.485 25.7477 230.932 25.8434C230.39 25.9391 229.853 26.0241 229.321 26.0985C228.789 26.173 228.332 26.2368 227.949 26.2899C227.067 26.4069 226.259 26.5983 225.525 26.8641C224.802 27.1299 224.201 27.502 223.723 27.9805C223.255 28.4483 222.963 29.0544 222.846 29.7987C222.676 30.8513 222.925 31.6541 223.595 32.207C224.265 32.7492 225.206 33.0204 226.418 33.0204Z" fill="#88889B"/>
<path d="M255.581 4.10498L250.158 36.7684H244.384L249.807 4.10498H255.581Z" fill="#88889B"/>
<circle cx="20.6294" cy="20.5908" r="10.6043" stroke="#88889B" stroke-width="4.99024"/>
<circle cx="20.6294" cy="20.5908" r="19.3372" stroke="#88889B" stroke-width="2.49512"/>
</svg>
