<svg width="20" height="20" viewBox="0 0 20 20" fill="none" xmlns="http://www.w3.org/2000/svg">
<path d="M6.91068 2C4.48955 2 2.5 4.11927 2.5 6.70473V13.2953C2.5 15.8778 4.48682 18 6.91068 18H13.0893C15.5105 18 17.5 15.8807 17.5 13.2953V6.70545C17.5 4.12218 15.5132 2 13.0893 2H6.91068ZM6.91068 3.45455H13.0893C13.4896 3.45397 13.8861 3.53765 14.256 3.70078C14.6259 3.86391 14.9621 4.1033 15.2451 4.40522C15.5282 4.70714 15.7526 5.06567 15.9055 5.46026C16.0585 5.85485 16.1369 6.27775 16.1364 6.70473V13.2953C16.1369 13.7223 16.0585 14.1452 15.9055 14.5397C15.7526 14.9343 15.5282 15.2929 15.2451 15.5948C14.9621 15.8967 14.6259 16.1361 14.256 16.2992C13.8861 16.4624 13.4896 16.546 13.0893 16.5455H6.91136C6.51101 16.5461 6.11447 16.4625 5.74446 16.2994C5.37446 16.1363 5.03826 15.897 4.75514 15.595C4.47201 15.2931 4.24753 14.9345 4.09455 14.5399C3.94157 14.1453 3.8631 13.7223 3.86364 13.2953V6.70545C3.86301 6.27841 3.94139 5.85544 4.09429 5.46076C4.24718 5.06609 4.47159 4.70748 4.75465 4.40548C5.03771 4.10348 5.37386 3.86403 5.74383 3.70085C6.11381 3.53767 6.51033 3.45397 6.91068 3.45455V3.45455ZM14.0268 5.04582C13.9456 5.04543 13.8651 5.06221 13.79 5.09519C13.7149 5.12817 13.6466 5.17669 13.5892 5.23795C13.5318 5.29921 13.4863 5.372 13.4554 5.45212C13.4245 5.53224 13.4087 5.61809 13.4091 5.70473C13.4091 6.07127 13.6832 6.36364 14.0268 6.36364C14.1081 6.36412 14.1887 6.34741 14.2638 6.31447C14.339 6.28154 14.4074 6.23304 14.4649 6.17176C14.5224 6.11049 14.5679 6.03767 14.5989 5.95751C14.6298 5.87734 14.6456 5.79143 14.6452 5.70473C14.6456 5.61803 14.6298 5.53211 14.5989 5.45195C14.5679 5.37179 14.5224 5.29896 14.4649 5.23769C14.4074 5.17642 14.339 5.12791 14.2638 5.09498C14.1887 5.06205 14.1081 5.04534 14.0268 5.04582V5.04582ZM10 5.63636C7.75 5.63636 5.90909 7.6 5.90909 10C5.90909 12.4 7.75 14.3636 10 14.3636C12.25 14.3636 14.0909 12.4 14.0909 10C14.0909 7.6 12.25 5.63636 10 5.63636ZM10 7.09091C11.5157 7.09091 12.7273 8.38327 12.7273 10C12.7273 11.6167 11.5157 12.9091 10 12.9091C8.48432 12.9091 7.27273 11.6167 7.27273 10C7.27273 8.38327 8.48432 7.09091 10 7.09091Z" fill="url(#paint0_linear_163_4)"/>
<defs>
<linearGradient id="paint0_linear_163_4" x1="10" y1="2" x2="10" y2="18" gradientUnits="userSpaceOnUse">
<stop stop-color="#5C43F6"/>
<stop offset="1" stop-color="#BC61F3"/>
</linearGradient>
</defs>
</svg>
