<svg width="237" height="46" viewBox="0 0 237 46" fill="none" xmlns="http://www.w3.org/2000/svg">
<path d="M64.3575 1.4821V23.1747C64.3575 26.4982 63.4443 29.0582 61.6179 30.8547C59.8214 32.6511 57.3213 33.5494 54.1175 33.5494C50.6443 33.5494 47.8897 32.5763 45.8537 30.6301C43.8177 28.654 42.7997 25.8245 42.7997 22.1417H50.3898C50.3898 25.1059 51.5126 26.588 53.7582 26.588C55.7044 26.588 56.6775 25.4502 56.6775 23.1747V1.4821H64.3575Z" fill="#88889B"/>
<path d="M80.2936 7.85963C82.2099 7.85963 83.8566 8.29378 85.234 9.16208C86.6113 10.0304 87.6293 11.2131 88.288 12.7101V8.17401H95.923V33.235H88.288V28.6989C87.6293 30.1959 86.6113 31.3786 85.234 32.2469C83.8566 33.1152 82.2099 33.5494 80.2936 33.5494C78.2277 33.5494 76.3713 33.0404 74.7245 32.0224C73.1077 30.9744 71.8202 29.4773 70.8621 27.5312C69.9339 25.585 69.4698 23.3094 69.4698 20.7045C69.4698 18.0697 69.9339 15.7941 70.8621 13.8779C71.8202 11.9317 73.1077 10.4496 74.7245 9.43155C76.3713 8.3836 78.2277 7.85963 80.2936 7.85963ZM82.7638 14.5964C81.117 14.5964 79.7846 15.1354 78.7666 16.2133C77.7785 17.2912 77.2845 18.7883 77.2845 20.7045C77.2845 22.6208 77.7785 24.1178 78.7666 25.1957C79.7846 26.2736 81.117 26.8126 82.7638 26.8126C84.3806 26.8126 85.698 26.2586 86.7161 25.1508C87.764 24.043 88.288 22.5609 88.288 20.7045C88.288 18.8182 87.764 17.3361 86.7161 16.2582C85.698 15.1504 84.3806 14.5964 82.7638 14.5964Z" fill="#88889B"/>
<path d="M113.876 7.85963C117.11 7.85963 119.819 8.75787 122.005 10.5544C124.191 12.3209 125.568 14.7611 126.137 17.875H118.008C117.768 16.7971 117.274 15.9588 116.526 15.36C115.777 14.7611 114.834 14.4617 113.696 14.4617C112.349 14.4617 111.241 15.0007 110.373 16.0786C109.505 17.1265 109.07 18.6685 109.07 20.7045C109.07 22.7405 109.505 24.2975 110.373 25.3754C111.241 26.4233 112.349 26.9473 113.696 26.9473C114.834 26.9473 115.777 26.6479 116.526 26.049C117.274 25.4502 117.768 24.6119 118.008 23.534H126.137C125.568 26.6479 124.191 29.1031 122.005 30.8996C119.819 32.6661 117.11 33.5494 113.876 33.5494C111.421 33.5494 109.235 33.0404 107.319 32.0224C105.432 30.9744 103.95 29.4773 102.872 27.5312C101.795 25.585 101.256 23.3094 101.256 20.7045C101.256 18.0697 101.78 15.7941 102.828 13.8779C103.905 11.9317 105.403 10.4496 107.319 9.43155C109.235 8.3836 111.421 7.85963 113.876 7.85963Z" fill="#88889B"/>
<path d="M146.673 33.235L139.173 22.5908V33.235H131.493V0H139.173V18.2343L146.673 8.17401H155.701L145.596 20.7045L155.925 33.235H146.673Z" fill="#88889B"/>
<path d="M175.707 7.85963C177.773 7.85963 179.614 8.3836 181.231 9.43155C182.878 10.4496 184.165 11.9317 185.093 13.8779C186.051 15.7941 186.531 18.0697 186.531 20.7045C186.531 23.3094 186.051 25.585 185.093 27.5312C184.165 29.4773 182.878 30.9744 181.231 32.0224C179.614 33.0404 177.773 33.5494 175.707 33.5494C173.79 33.5494 172.144 33.1152 170.766 32.2469C169.389 31.3786 168.386 30.1959 167.757 28.6989V45.1816H160.077V8.17401H167.757V12.7101C168.386 11.2131 169.389 10.0304 170.766 9.16208C172.144 8.29378 173.79 7.85963 175.707 7.85963ZM173.237 14.5964C171.62 14.5964 170.287 15.1504 169.239 16.2582C168.221 17.3361 167.712 18.8182 167.712 20.7045C167.712 22.5609 168.221 24.043 169.239 25.1508C170.287 26.2586 171.62 26.8126 173.237 26.8126C174.883 26.8126 176.201 26.2736 177.189 25.1957C178.207 24.1178 178.716 22.6208 178.716 20.7045C178.716 18.7883 178.207 17.2912 177.189 16.2133C176.201 15.1354 174.883 14.5964 173.237 14.5964Z" fill="#88889B"/>
<path d="M203.585 7.85963C206.07 7.85963 208.286 8.3836 210.232 9.43155C212.208 10.4496 213.75 11.9317 214.858 13.8779C215.996 15.824 216.565 18.0996 216.565 20.7045C216.565 23.3094 215.996 25.585 214.858 27.5312C213.75 29.4773 212.208 30.9744 210.232 32.0224C208.286 33.0404 206.07 33.5494 203.585 33.5494C201.1 33.5494 198.869 33.0404 196.893 32.0224C194.917 30.9744 193.36 29.4773 192.222 27.5312C191.115 25.585 190.561 23.3094 190.561 20.7045C190.561 18.0996 191.115 15.824 192.222 13.8779C193.36 11.9317 194.917 10.4496 196.893 9.43155C198.869 8.3836 201.1 7.85963 203.585 7.85963ZM203.585 14.5066C202.118 14.5066 200.876 15.0456 199.857 16.1235C198.869 17.1714 198.375 18.6984 198.375 20.7045C198.375 22.7106 198.869 24.2376 199.857 25.2855C200.876 26.3335 202.118 26.8575 203.585 26.8575C205.052 26.8575 206.28 26.3335 207.268 25.2855C208.256 24.2376 208.75 22.7106 208.75 20.7045C208.75 18.6984 208.256 17.1714 207.268 16.1235C206.28 15.0456 205.052 14.5066 203.585 14.5066Z" fill="#88889B"/>
<path d="M236.087 26.6329V33.235H232.629C229.694 33.235 227.404 32.5164 225.757 31.0792C224.14 29.6121 223.332 27.2018 223.332 23.8484V14.6414H219.963V8.17401H223.332V2.02104H231.012V8.17401H236.042V14.6414H231.012V23.9831C231.012 24.9712 231.206 25.6598 231.596 26.049C232.015 26.4383 232.703 26.6329 233.662 26.6329H236.087Z" fill="#88889B"/>
<path fill-rule="evenodd" clip-rule="evenodd" d="M17.9395 18.7504C23.3104 20.3832 29.3587 16.1339 31.4487 9.25912C31.6293 8.66507 31.7744 8.07085 31.8854 7.47988C34.0091 11.0034 34.6874 15.379 33.3966 19.6251C30.9799 27.574 22.577 32.0588 14.6281 29.6422C6.67921 27.2256 2.1944 18.8226 4.61101 10.8737C5.90191 6.6276 8.90098 3.36993 12.6266 1.62467C12.3898 2.17746 12.1796 2.75196 11.999 3.34606C9.90896 10.2208 12.5686 17.1176 17.9395 18.7504Z" fill="#88889B"/>
</svg>
