<svg width="20" height="20" viewBox="0 0 20 20" fill="none" xmlns="http://www.w3.org/2000/svg">
<path d="M4.38786 2C4.14007 1.99981 3.89467 2.04933 3.66568 2.14572C3.43669 2.24211 3.22859 2.3835 3.05328 2.5618C2.87797 2.74009 2.73887 2.95181 2.64394 3.18486C2.549 3.4179 2.50009 3.66771 2.5 3.92C2.5 4.98182 3.345 5.86182 4.38571 5.86182C5.42786 5.86182 6.27357 4.98182 6.27357 3.92146C6.27376 3.66919 6.22512 3.41937 6.13044 3.18626C6.03576 2.95314 5.89689 2.74131 5.72176 2.56287C5.54664 2.38443 5.3387 2.24287 5.10982 2.14629C4.88094 2.04971 4.63561 2 4.38786 2ZM13.5964 7.09091C12.0114 7.09091 11.105 7.93455 10.6693 8.77382H10.6236V7.31709H7.5V18H10.755V12.712C10.755 11.3185 10.8579 9.97164 12.5514 9.97164C14.2207 9.97164 14.245 11.5607 14.245 12.8V18H17.5V12.1324C17.5 9.26109 16.8936 7.09091 13.5964 7.09091ZM2.75929 7.31636V18H6.01643V7.31636H2.75929Z" fill="url(#paint0_linear_176_15)"/>
<defs>
<linearGradient id="paint0_linear_176_15" x1="10" y1="2" x2="10" y2="18" gradientUnits="userSpaceOnUse">
<stop stop-color="#5C43F6"/>
<stop offset="1" stop-color="#BC61F3"/>
</linearGradient>
</defs>
</svg>
