<svg width="247" height="42" viewBox="0 0 247 42" fill="none" xmlns="http://www.w3.org/2000/svg">
<path d="M66.089 35.2732L59.532 12.1812H59.3346C59.6416 16.1139 59.7951 19.1695 59.7951 21.3478V35.2732H52.1197V3.2119H63.6548L70.3433 25.975H70.5188L77.0758 3.2119H88.6328V35.2732H80.6723V21.2162C80.6723 20.4852 80.6796 19.6738 80.6942 18.782C80.7234 17.8902 80.8258 15.7046 81.0012 12.225H80.8038L74.3346 35.2732H66.089Z" fill="#88889B"/>
<path d="M103.655 35.2732H95.0801V10.4268H103.655V35.2732ZM94.8608 4.2426C94.8608 2.95605 95.219 1.99845 95.9354 1.3698C96.6517 0.741145 97.8067 0.426819 99.4003 0.426819C100.994 0.426819 102.156 0.748455 102.887 1.39173C103.618 2.035 103.984 2.98529 103.984 4.2426C103.984 6.75721 102.456 8.01452 99.4003 8.01452C96.374 8.01452 94.8608 6.75721 94.8608 4.2426Z" fill="#88889B"/>
<path d="M125.321 35.2732V21.7206C125.321 20.0686 125.08 18.8259 124.598 17.9926C124.13 17.1446 123.37 16.7206 122.317 16.7206C120.87 16.7206 119.824 17.2981 119.181 18.4531C118.538 19.6081 118.216 21.589 118.216 24.396V35.2732H109.641V10.4268H116.111L117.185 13.497H117.69C118.421 12.3274 119.429 11.4502 120.716 10.8654C122.017 10.2806 123.508 9.9882 125.19 9.9882C127.938 9.9882 130.073 10.785 131.593 12.3785C133.128 13.9721 133.896 16.2162 133.896 19.111V35.2732H125.321Z" fill="#88889B"/>
<path d="M148.348 35.2732H139.773V10.4268H148.348V35.2732ZM139.554 4.2426C139.554 2.95605 139.912 1.99845 140.628 1.3698C141.345 0.741145 142.5 0.426819 144.093 0.426819C145.687 0.426819 146.849 0.748455 147.58 1.39173C148.311 2.035 148.676 2.98529 148.676 4.2426C148.676 6.75721 147.149 8.01452 144.093 8.01452C141.067 8.01452 139.554 6.75721 139.554 4.2426Z" fill="#88889B"/>
<path d="M165.65 35.7118C161.586 35.7118 158.501 34.6153 156.396 32.4223C154.305 30.2294 153.26 27.0788 153.26 22.9706C153.26 18.8478 154.393 15.6534 156.659 13.3873C158.925 11.1212 162.149 9.9882 166.33 9.9882C169.21 9.9882 171.922 10.6168 174.466 11.8742L171.944 18.2119C170.906 17.7586 169.948 17.4005 169.071 17.1373C168.194 16.8595 167.28 16.7206 166.33 16.7206C164.941 16.7206 163.866 17.2616 163.106 18.3434C162.346 19.4253 161.966 20.9531 161.966 22.9268C161.966 26.9034 163.435 28.8917 166.374 28.8917C168.888 28.8917 171.301 28.1607 173.611 26.6987V33.5188C171.403 34.9808 168.749 35.7118 165.65 35.7118Z" fill="#88889B"/>
<path d="M202.273 22.7952C202.273 26.8595 201.176 30.032 198.983 32.3127C196.805 34.5788 193.749 35.7118 189.817 35.7118C186.045 35.7118 183.04 34.5495 180.804 32.225C178.581 29.9004 177.47 26.7572 177.47 22.7952C177.47 18.7455 178.559 15.6022 180.738 13.3654C182.931 11.1139 186.001 9.9882 189.948 9.9882C192.39 9.9882 194.546 10.5072 196.418 11.5452C198.289 12.5832 199.729 14.0744 200.738 16.0189C201.761 17.9487 202.273 20.2075 202.273 22.7952ZM186.176 22.7952C186.176 24.9297 186.461 26.5598 187.032 27.6855C187.602 28.7966 188.559 29.3522 189.904 29.3522C191.235 29.3522 192.17 28.7966 192.711 27.6855C193.267 26.5598 193.545 24.9297 193.545 22.7952C193.545 20.6753 193.267 19.0744 192.711 17.9926C192.156 16.9107 191.206 16.3698 189.861 16.3698C188.545 16.3698 187.602 16.9107 187.032 17.9926C186.461 19.0598 186.176 20.6607 186.176 22.7952Z" fill="#88889B"/>
<path d="M215.803 35.2732H207.229V10.4268H215.803V35.2732ZM207.01 4.2426C207.01 2.95605 207.368 1.99845 208.084 1.3698C208.801 0.741145 209.956 0.426819 211.549 0.426819C213.143 0.426819 214.305 0.748455 215.036 1.39173C215.767 2.035 216.132 2.98529 216.132 4.2426C216.132 6.75721 214.605 8.01452 211.549 8.01452C208.523 8.01452 207.01 6.75721 207.01 4.2426Z" fill="#88889B"/>
<path d="M237.47 35.2732V21.7206C237.47 20.0686 237.229 18.8259 236.746 17.9926C236.279 17.1446 235.518 16.7206 234.466 16.7206C233.018 16.7206 231.973 17.2981 231.33 18.4531C230.686 19.6081 230.365 21.589 230.365 24.396V35.2732H221.79V10.4268H228.26L229.334 13.497H229.839C230.569 12.3274 231.578 11.4502 232.865 10.8654C234.166 10.2806 235.657 9.9882 237.338 9.9882C240.087 9.9882 242.222 10.785 243.742 12.3785C245.277 13.9721 246.045 16.2162 246.045 19.111V35.2732H237.47Z" fill="#88889B"/>
<path fill-rule="evenodd" clip-rule="evenodd" d="M20.5847 41.1756C31.9534 41.1756 41.1695 31.9595 41.1695 20.5908C41.1695 9.2222 31.9534 0.00610352 20.5847 0.00610352C9.2161 0.00610352 0 9.2222 0 20.5908C0 31.9595 9.2161 41.1756 20.5847 41.1756ZM26.7477 28.1843C27.8456 27.1779 28.3945 25.952 28.3945 24.5065C28.3945 23.3354 28.0926 22.4023 27.4888 21.7069C26.9033 20.9933 26.1805 20.4627 25.3205 20.1151C24.4605 19.7491 23.3627 19.4015 22.027 19.0721V12.6771C23.6554 12.7686 25.2107 13.2809 26.6928 14.2141L27.5986 12.0184C26.885 11.5244 26.0341 11.131 25.0461 10.8382C24.0763 10.5454 23.0699 10.3808 22.027 10.3442V7.24274H20.2704V10.3716C18.2394 10.5363 16.6932 11.1218 15.632 12.1282C14.589 13.1345 14.0675 14.3605 14.0675 15.806C14.0675 16.9587 14.3511 17.8919 14.9184 18.6055C15.5039 19.3191 16.2175 19.8589 17.0592 20.2248C17.9192 20.5908 18.9896 20.9293 20.2704 21.2404V27.6079C19.1725 27.5347 18.1204 27.306 17.1141 26.9217C16.1077 26.5192 15.2752 26.016 14.6165 25.4122L13.6009 27.553C14.3145 28.2117 15.266 28.7607 16.4554 29.1998C17.663 29.6206 18.9347 29.8677 20.2704 29.9408V33.0423H22.027V29.9408C24.0946 29.7762 25.6682 29.1906 26.7477 28.1843ZM17.663 17.5351C17.0592 17.096 16.7573 16.483 16.7573 15.6962C16.7573 14.9277 17.05 14.2781 17.6356 13.7475C18.2211 13.1986 19.0994 12.8509 20.2704 12.7046V18.633C19.136 18.3402 18.2668 17.9742 17.663 17.5351ZM24.7716 26.6473C24.1678 27.1596 23.2529 27.4707 22.027 27.5805V21.6795C23.2163 22.0089 24.122 22.3931 24.7442 22.8322C25.3846 23.2531 25.7048 23.8661 25.7048 24.6712C25.7048 25.4579 25.3937 26.1167 24.7716 26.6473Z" fill="#88889B"/>
</svg>
