<svg width="168" height="45" viewBox="0 0 168 45" fill="none" xmlns="http://www.w3.org/2000/svg">
<path d="M101.576 35.068L101.221 36.0028L101.232 36.007L101.576 35.068ZM97.148 32.332L96.4551 33.0531L96.4622 33.0598L97.148 32.332ZM94.268 28.192L93.3503 28.5892L93.3525 28.5943L94.268 28.192ZM94.268 17.644L95.1835 18.0463L95.1857 18.0412L94.268 17.644ZM97.184 13.468L96.4982 12.7402L96.4982 12.7402L97.184 13.468ZM101.612 10.768L101.956 11.707L101.963 11.7043L101.612 10.768ZM113.636 10.984L114.026 10.063L114.026 10.063L113.636 10.984ZM118.28 14.404L118.951 15.1455L119.658 14.5055L119.052 13.7687L118.28 14.404ZM113.744 18.508L113.009 19.1863L113.681 19.9138L114.415 19.2495L113.744 18.508ZM110.936 16.42L110.498 17.3188L110.511 17.3251L110.524 17.3311L110.936 16.42ZM102.404 17.68L103.111 18.3871L103.118 18.3804L103.124 18.3736L102.404 17.68ZM100.928 19.948L100.001 19.5723L99.9986 19.5789L99.996 19.5856L100.928 19.948ZM100.928 25.816L99.9927 26.1699L99.9969 26.1808L100.001 26.1917L100.928 25.816ZM102.404 28.12L101.684 28.8136L101.69 28.8204L101.697 28.8271L102.404 28.12ZM104.636 29.596L104.251 30.5191L104.267 30.5254L104.282 30.5313L104.636 29.596ZM110.648 29.596L110.964 30.5447L110.974 30.5413L110.984 30.5377L110.648 29.596ZM113.708 27.796L114.489 27.172L113.86 26.3832L113.077 27.0204L113.708 27.796ZM117.704 32.8L118.287 33.6128L119.143 32.9992L118.485 32.176L117.704 32.8ZM112.7 35.176L112.98 36.1361L112.98 36.1361L112.7 35.176ZM111.404 31.864H110.404V32.7264L111.257 32.8531L111.404 31.864ZM111.404 22.36V21.36H110.404V22.36H111.404ZM117.704 22.36H118.704V21.36H117.704V22.36ZM117.704 32.8L117.557 33.7891L118.704 33.9595V32.8H117.704ZM107.12 35.004C105.234 35.004 103.503 34.7089 101.92 34.129L101.232 36.007C103.057 36.6751 105.022 37.004 107.12 37.004V35.004ZM101.931 34.1333C100.342 33.529 98.9804 32.6847 97.8338 31.6042L96.4622 33.0598C97.8116 34.3313 99.4018 35.311 101.221 36.0027L101.931 34.1333ZM97.8408 31.6109C96.7131 30.5274 95.8279 29.2563 95.1835 27.7897L93.3525 28.5943C94.1001 30.2957 95.1349 31.7846 96.4552 33.0531L97.8408 31.6109ZM95.1857 27.7948C94.549 26.3237 94.224 24.6965 94.224 22.9H92.224C92.224 24.9435 92.595 26.8443 93.3503 28.5892L95.1857 27.7948ZM94.224 22.9C94.224 21.1032 94.5491 19.4902 95.1835 18.0463L93.3525 17.2417C92.5949 18.9658 92.224 20.8568 92.224 22.9H94.224ZM95.1857 18.0412C95.8289 16.5552 96.723 15.2765 97.8698 14.1958L96.4982 12.7402C95.149 14.0115 94.0991 15.5168 93.3503 17.2468L95.1857 18.0412ZM97.8698 14.1958C99.0136 13.118 100.371 12.2872 101.956 11.707L101.268 9.82898C99.4446 10.4968 97.8504 11.466 96.4982 12.7402L97.8698 14.1958ZM101.963 11.7043C103.568 11.1026 105.331 10.796 107.264 10.796V8.796C105.117 8.796 103.112 9.13735 101.261 9.83167L101.963 11.7043ZM107.264 10.796C109.528 10.796 111.517 11.1732 113.246 11.905L114.026 10.063C112.011 9.21083 109.752 8.796 107.264 8.796V10.796ZM113.246 11.905C114.978 12.6376 116.392 13.6829 117.508 15.0393L119.052 13.7687C117.72 12.1491 116.038 10.9144 114.026 10.063L113.246 11.905ZM117.609 13.6625L113.073 17.7665L114.415 19.2495L118.951 15.1455L117.609 13.6625ZM114.479 17.8297C113.538 16.8101 112.495 16.0278 111.348 15.5089L110.524 17.3311C111.393 17.7242 112.222 18.3339 113.009 19.1863L114.479 17.8297ZM111.374 15.5212C110.238 14.9671 108.982 14.7 107.624 14.7V16.7C108.714 16.7 109.666 16.9129 110.498 17.3188L111.374 15.5212ZM107.624 14.7C106.44 14.7 105.334 14.8845 104.318 15.2687L105.026 17.1393C105.786 16.8515 106.648 16.7 107.624 16.7V14.7ZM104.318 15.2687C103.299 15.6542 102.416 16.2258 101.684 16.9864L103.124 18.3736C103.64 17.8382 104.269 17.4258 105.026 17.1393L104.318 15.2687ZM101.697 16.9729C100.97 17.6994 100.407 18.571 100.001 19.5723L101.855 20.3237C102.169 19.549 102.59 18.9086 103.111 18.3871L101.697 16.9729ZM99.996 19.5856C99.6074 20.5849 99.424 21.6952 99.424 22.9H101.424C101.424 21.8968 101.577 21.0391 101.86 20.3104L99.996 19.5856ZM99.424 22.9C99.424 24.0634 99.6094 25.1568 99.9927 26.1699L101.863 25.4621C101.575 24.6992 101.424 23.8486 101.424 22.9H99.424ZM100.001 26.1917C100.406 27.1901 100.966 28.0679 101.684 28.8136L103.124 27.4264C102.594 26.8761 102.17 26.2179 101.855 25.4403L100.001 26.1917ZM101.697 28.8271C102.419 29.549 103.274 30.1119 104.251 30.5191L105.021 28.6729C104.27 28.3601 103.637 27.939 103.111 27.4129L101.697 28.8271ZM104.282 30.5313C105.295 30.9146 106.389 31.1 107.552 31.1V29.1C106.603 29.1 105.753 28.9494 104.99 28.6607L104.282 30.5313ZM107.552 31.1C108.716 31.1 109.855 30.9145 110.964 30.5447L110.332 28.6473C109.425 28.9495 108.5 29.1 107.552 29.1V31.1ZM110.984 30.5377C112.122 30.1315 113.24 29.4666 114.339 28.5716L113.077 27.0204C112.112 27.8054 111.19 28.3405 110.312 28.6543L110.984 30.5377ZM112.927 28.42L116.923 33.424L118.485 32.176L114.489 27.172L112.927 28.42ZM117.121 31.9872C115.783 32.9462 114.22 33.6919 112.42 34.2159L112.98 36.1361C114.972 35.5561 116.745 34.7178 118.287 33.6128L117.121 31.9872ZM112.42 34.2159C110.608 34.7436 108.842 35.004 107.12 35.004V37.004C109.046 37.004 111 36.7124 112.98 36.1361L112.42 34.2159ZM112.404 31.864V22.36H110.404V31.864H112.404ZM111.404 23.36H117.704V21.36H111.404V23.36ZM116.704 22.36V32.8H118.704V22.36H116.704ZM117.851 31.8109L111.551 30.8749L111.257 32.8531L117.557 33.7891L117.851 31.8109ZM126.075 34.528L125.613 35.4148L125.62 35.4187L125.628 35.4224L126.075 34.528ZM122.079 30.928L121.225 31.4484L121.23 31.4562L121.235 31.464L122.079 30.928ZM122.043 20.524L121.189 20.0036L121.187 20.0075L122.043 20.524ZM125.895 16.96L126.353 17.8492L126.363 17.8438L125.895 16.96ZM136.659 16.852L136.212 17.7465L136.223 17.7518L136.659 16.852ZM140.439 20.272L141.289 19.7456L141.289 19.7456L140.439 20.272ZM141.807 26.608L142.804 26.6847L142.804 26.6847L141.807 26.608ZM141.735 27.472V28.472H142.648L142.731 27.5625L141.735 27.472ZM126.291 27.472H125.291V28.472H126.291V27.472ZM126.291 23.872V22.872H125.291V23.872H126.291ZM138.099 23.872L138.462 24.804L138.099 22.872V23.872ZM135.507 24.88L134.507 24.853L134.467 26.3575L135.87 25.812L135.507 24.88ZM135.003 22.576L134.115 23.0363L134.122 23.0491L134.129 23.0616L135.003 22.576ZM133.563 21.064L133.049 21.9215L133.056 21.9259L133.063 21.9302L133.563 21.064ZM129.279 21.064L128.779 20.1978L128.772 20.2021L128.765 20.2065L129.279 21.064ZM127.875 22.612L128.763 23.0723L128.766 23.0658L128.77 23.0592L127.875 22.612ZM127.947 28.444L127.072 28.9271L127.078 28.9385L127.084 28.9497L127.947 28.444ZM129.675 30.064L129.216 30.9526L129.228 30.9585L129.24 30.9642L129.675 30.064ZM134.787 30.208L135.153 31.1388L135.161 31.1355L135.169 31.132L134.787 30.208ZM136.839 28.912L137.56 28.2189L136.905 27.5381L136.188 28.1527L136.839 28.912ZM140.439 32.656L141.18 33.3278L141.807 32.6361L141.16 31.9629L140.439 32.656ZM136.983 35.032L137.343 35.9649L137.35 35.9622L137.357 35.9594L136.983 35.032ZM132.123 34.824C129.945 34.824 128.087 34.416 126.522 33.6336L125.628 35.4224C127.519 36.368 129.694 36.824 132.123 36.824V34.824ZM126.537 33.6412C124.978 32.8284 123.782 31.7447 122.923 30.392L121.235 31.464C122.296 33.1353 123.765 34.4516 125.613 35.4148L126.537 33.6412ZM122.933 30.4076C122.1 29.041 121.675 27.4838 121.675 25.708H119.675C119.675 27.8202 120.186 29.743 121.225 31.4484L122.933 30.4076ZM121.675 25.708C121.675 23.9271 122.091 22.3812 122.899 21.0405L121.187 20.0075C120.171 21.6908 119.675 23.6009 119.675 25.708H121.675ZM122.897 21.0444C123.735 19.6687 124.881 18.6068 126.353 17.8491L125.437 16.0709C123.646 16.9932 122.223 18.3073 121.189 20.0036L122.897 21.0444ZM126.363 17.8438C127.836 17.0638 129.509 16.664 131.403 16.664V14.664C129.217 14.664 127.218 15.1281 125.427 16.0762L126.363 17.8438ZM131.403 16.664C133.181 16.664 134.778 17.0296 136.212 17.7464L137.106 15.9576C135.372 15.0904 133.465 14.664 131.403 14.664V16.664ZM136.223 17.7518C137.634 18.4362 138.752 19.4458 139.589 20.7984L141.289 19.7456C140.255 18.0742 138.852 16.8038 137.095 15.9522L136.223 17.7518ZM139.589 20.7984C140.408 22.1213 140.843 23.7659 140.843 25.78H142.843C142.843 23.4741 142.342 21.4467 141.289 19.7456L139.589 20.7984ZM140.843 25.78C140.843 25.9881 140.833 26.2376 140.81 26.5313L142.804 26.6847C142.83 26.3544 142.843 26.0519 142.843 25.78H140.843ZM140.81 26.5313C140.786 26.8395 140.763 27.1228 140.739 27.3815L142.731 27.5625C142.756 27.2932 142.78 27.0005 142.804 26.6847L140.81 26.5313ZM141.735 26.472H126.291V28.472H141.735V26.472ZM127.291 27.472V23.872H125.291V27.472H127.291ZM126.291 24.872H138.099V22.872H126.291V24.872ZM137.737 22.94L135.145 23.948L135.87 25.812L138.462 24.804L137.737 22.94ZM136.507 24.907C136.535 23.8756 136.34 22.9234 135.877 22.0904L134.129 23.0616C134.386 23.5246 134.528 24.1084 134.507 24.853L136.507 24.907ZM135.891 22.1157C135.468 21.3005 134.855 20.6546 134.063 20.1978L133.063 21.9302C133.52 22.1934 133.866 22.5555 134.115 23.0363L135.891 22.1157ZM134.078 20.2065C133.298 19.7387 132.406 19.524 131.439 19.524V21.524C132.104 21.524 132.628 21.6693 133.049 21.9215L134.078 20.2065ZM131.439 19.524C130.471 19.524 129.575 19.739 128.779 20.1978L129.779 21.9302C130.232 21.669 130.775 21.524 131.439 21.524V19.524ZM128.765 20.2065C127.989 20.6716 127.395 21.3358 126.981 22.1648L128.77 23.0592C129.027 22.5442 129.369 22.1764 129.794 21.9215L128.765 20.2065ZM126.987 22.1517C126.563 22.9695 126.371 23.9021 126.371 24.916H128.371C128.371 24.1539 128.515 23.5505 128.763 23.0723L126.987 22.1517ZM126.371 24.916V25.96H128.371V24.916H126.371ZM126.371 25.96C126.371 27.054 126.591 28.0553 127.072 28.9271L128.823 27.9609C128.536 27.4407 128.371 26.786 128.371 25.96H126.371ZM127.084 28.9497C127.592 29.8154 128.311 30.4853 129.216 30.9526L130.134 29.1754C129.551 28.8747 129.118 28.4646 128.81 27.9383L127.084 28.9497ZM129.24 30.9642C130.149 31.4041 131.193 31.604 132.339 31.604V29.604C131.421 29.604 130.689 29.4439 130.111 29.1638L129.24 30.9642ZM132.339 31.604C133.385 31.604 134.333 31.4609 135.153 31.1388L134.421 29.2772C133.897 29.4831 133.213 29.604 132.339 29.604V31.604ZM135.169 31.132C135.978 30.7973 136.751 30.3043 137.49 29.6713L136.188 28.1527C135.583 28.6717 134.988 29.0427 134.405 29.284L135.169 31.132ZM136.118 29.6051L139.718 33.3491L141.16 31.9629L137.56 28.2189L136.118 29.6051ZM139.698 31.9842C138.87 32.8979 137.845 33.6057 136.609 34.1046L137.357 35.9594C138.857 35.3543 140.137 34.4781 141.18 33.3278L139.698 31.9842ZM136.623 34.0991C135.397 34.5724 133.905 34.824 132.123 34.824V36.824C134.086 36.824 135.833 36.5476 137.343 35.9649L136.623 34.0991ZM161.809 16.6L161.355 17.4909L161.362 17.4945L161.369 17.4979L161.809 16.6ZM164.689 19.408L163.812 19.888L163.815 19.8943L163.819 19.9006L164.689 19.408ZM165.769 35.5V36.5H166.769V35.5H165.769ZM158.929 35.5H157.929V36.5H158.929V35.5ZM158.065 22.432L157.304 23.0805L157.316 23.0956L157.33 23.1103L158.065 22.432ZM153.745 21.964L154.206 22.8512L154.22 22.8441L154.233 22.8365L153.745 21.964ZM151.837 35.5V36.5H152.837V35.5H151.837ZM144.997 35.5H143.997V36.5H144.997V35.5ZM144.997 15.988V14.988H143.997V15.988H144.997ZM151.513 15.988H152.513V14.988H151.513V15.988ZM151.513 21.532L150.723 22.1459L152.513 24.4465V21.532H151.513ZM150.253 19.912L149.368 19.4469L149.068 20.0173L149.463 20.5259L150.253 19.912ZM153.313 16.744L153.786 17.625L153.792 17.6216L153.798 17.6182L153.313 16.744ZM157.705 16.664C159.075 16.664 160.285 16.9456 161.355 17.4909L162.263 15.7091C160.885 15.0064 159.359 14.664 157.705 14.664V16.664ZM161.369 17.4979C162.395 18.0011 163.208 18.7849 163.812 19.888L165.566 18.928C164.778 17.4871 163.67 16.3989 162.249 15.7021L161.369 17.4979ZM163.819 19.9006C164.427 20.976 164.769 22.4342 164.769 24.34H166.769C166.769 22.2138 166.39 20.384 165.559 18.9154L163.819 19.9006ZM164.769 24.34V35.5H166.769V24.34H164.769ZM165.769 34.5H158.929V36.5H165.769V34.5ZM159.929 35.5V25.456H157.929V35.5H159.929ZM159.929 25.456C159.929 23.9639 159.627 22.6496 158.8 21.7537L157.33 23.1103C157.655 23.4624 157.929 24.1641 157.929 25.456H159.929ZM158.826 21.7835C158.049 20.8708 156.966 20.46 155.725 20.46V22.46C156.499 22.46 156.977 22.6972 157.304 23.0805L158.826 21.7835ZM155.725 20.46C154.842 20.46 154.013 20.6679 153.256 21.0915L154.233 22.8365C154.677 22.5881 155.168 22.46 155.725 22.46V20.46ZM153.283 21.0768C152.476 21.4968 151.866 22.1541 151.446 22.9928L153.235 23.8872C153.488 23.3819 153.814 23.0552 154.206 22.8512L153.283 21.0768ZM151.446 22.9928C151.017 23.8509 150.837 24.8959 150.837 26.068H152.837C152.837 25.0801 152.992 24.3731 153.235 23.8872L151.446 22.9928ZM150.837 26.068V35.5H152.837V26.068H150.837ZM151.837 34.5H144.997V36.5H151.837V34.5ZM145.997 35.5V15.988H143.997V35.5H145.997ZM144.997 16.988H151.513V14.988H144.997V16.988ZM150.513 15.988V21.532H152.513V15.988H150.513ZM152.302 20.9181L151.042 19.2981L149.463 20.5259L150.723 22.1459L152.302 20.9181ZM151.138 20.3771C151.798 19.1216 152.681 18.2183 153.786 17.625L152.84 15.863C151.352 16.6617 150.196 17.8704 149.368 19.4469L151.138 20.3771ZM153.798 17.6182C154.931 16.9888 156.225 16.664 157.705 16.664V14.664C155.92 14.664 154.286 15.0592 152.827 15.8698L153.798 17.6182Z" fill="url(#paint0_linear_233_4)"/>
<path d="M26.496 10.3V35.5H20.628L9.504 22.072V35.5H2.52V10.3H8.388L19.512 23.728V10.3H26.496ZM51.1439 25.78C51.1439 25.828 51.1079 26.392 51.0359 27.472H36.8519C37.1399 28.48 37.6919 29.26 38.5079 29.812C39.3479 30.34 40.3919 30.604 41.6399 30.604C42.5759 30.604 43.3799 30.472 44.0519 30.208C44.7479 29.944 45.4439 29.512 46.1399 28.912L49.7399 32.656C47.8439 34.768 45.0719 35.824 41.4239 35.824C39.1439 35.824 37.1399 35.392 35.4119 34.528C33.6839 33.664 32.3399 32.464 31.3799 30.928C30.4439 29.392 29.9759 27.652 29.9759 25.708C29.9759 23.788 30.4319 22.072 31.3439 20.56C32.2799 19.024 33.5639 17.824 35.1959 16.96C36.8279 16.096 38.6639 15.664 40.7039 15.664C42.6479 15.664 44.4119 16.072 45.9959 16.888C47.5799 17.68 48.8279 18.844 49.7399 20.38C50.6759 21.892 51.1439 23.692 51.1439 25.78ZM40.7399 20.524C39.6839 20.524 38.7959 20.824 38.0759 21.424C37.3799 22.024 36.9359 22.84 36.7439 23.872H44.7359C44.5439 22.84 44.0879 22.024 43.3679 21.424C42.6719 20.824 41.7959 20.524 40.7399 20.524ZM66.1542 35.5L62.6622 30.388L58.9182 35.5H51.5022L58.9182 25.744L51.7182 15.988H59.4222L62.8782 20.92L66.4782 15.988H73.7142L66.5142 25.492L73.9662 35.5H66.1542ZM89.5233 34.708C88.9473 35.068 88.2393 35.344 87.3993 35.536C86.5833 35.728 85.7073 35.824 84.7713 35.824C82.2273 35.824 80.2713 35.2 78.9033 33.952C77.5353 32.704 76.8513 30.844 76.8513 28.372V21.82H74.0073V16.708H76.8513V11.632H83.6913V16.708H88.1553V21.82H83.6913V28.3C83.6913 28.996 83.8713 29.548 84.2313 29.956C84.6153 30.34 85.1193 30.532 85.7433 30.532C86.5353 30.532 87.2313 30.328 87.8313 29.92L89.5233 34.708Z" fill="url(#paint1_linear_233_4)"/>
<defs>
<linearGradient id="paint0_linear_233_4" x1="130" y1="0.5" x2="130" y2="44.5" gradientUnits="userSpaceOnUse">
<stop stop-color="#5C43F6"/>
<stop offset="1" stop-color="#BC61F3"/>
</linearGradient>
<linearGradient id="paint1_linear_233_4" x1="45" y1="0.5" x2="45" y2="44.5" gradientUnits="userSpaceOnUse">
<stop stop-color="#5C43F6"/>
<stop offset="1" stop-color="#BC61F3"/>
</linearGradient>
</defs>
</svg>
