<svg width="283" height="46" viewBox="0 0 283 46" fill="none" xmlns="http://www.w3.org/2000/svg">
<path d="M89.3988 27.23L89.6682 36.392H81.7637L71.4788 18.4721H71.0297L70.9848 26.197L71.2542 36.392H64.6522L65.0115 27.8587L64.6522 7.4237H72.5118L82.8416 25.3437H83.2907L83.1111 7.69317L89.803 7.28897L89.3988 27.23Z" fill="#88889B"/>
<path d="M112.737 27.0503L100.97 27.1401C101.18 28.6971 101.718 29.8498 102.587 30.5984C103.455 31.3469 104.683 31.7212 106.27 31.7212C107.856 31.7212 109.952 31.2571 112.557 30.3289L113.096 30.6882L112.018 35.7633C109.623 36.5118 107.452 36.8861 105.506 36.8861C102.063 36.8861 99.3531 35.913 97.377 33.9668C95.4308 32.0206 94.4577 29.3408 94.4577 25.9275C94.4577 22.5142 95.4008 19.8344 97.2872 17.8882C99.1735 15.9121 101.733 14.924 104.967 14.924C107.752 14.924 109.907 15.6726 111.434 17.1696C112.991 18.6667 113.77 20.7476 113.77 23.4124C113.77 24.2807 113.68 25.1939 113.5 26.1521L112.737 27.0503ZM107.617 22.6489C107.617 20.583 106.719 19.55 104.922 19.55C103.904 19.55 103.066 19.8943 102.407 20.583C101.748 21.2417 101.299 22.1998 101.06 23.4573L107.527 23.2777L107.617 22.6489Z" fill="#88889B"/>
<path d="M125.068 17.9781L127.314 21.8854L129.649 17.7086L130.817 15.4181H136.97L131.131 25.7479L137.15 36.1675L129.649 36.7064L128.571 33.8321L126.326 29.79L123.811 34.1464L122.778 36.392H116.58L122.418 25.8826L116.535 15.5528L124.125 15.2384L125.068 17.9781Z" fill="#88889B"/>
<path d="M150.518 31.1822C151.416 31.1822 152.374 30.9577 153.392 30.5085L153.886 31.0475L153.213 35.1345C151.716 35.9729 150.159 36.4968 148.542 36.7064C146.356 36.5867 144.694 36.0178 143.556 34.9998C142.419 33.9518 141.85 32.5296 141.85 30.7331L142.074 26.6461L142.029 19.7745H139.245L139.02 19.4152L139.335 15.5528H141.985V11.9598L148.497 10.0286L148.991 10.4777L148.811 15.5528H153.752L153.976 15.957L153.662 19.7745H148.676L148.407 28.8468C148.407 29.7151 148.557 30.3289 148.856 30.6882C149.185 31.0176 149.739 31.1822 150.518 31.1822Z" fill="#88889B"/>
<path d="M170.502 7.37879C173.616 7.37879 176.011 8.15727 177.688 9.71422C179.395 11.2712 180.248 13.4868 180.248 16.3612C180.248 18.6068 179.739 20.583 178.721 22.2896C177.703 23.9663 176.266 25.2688 174.409 26.197C172.553 27.1252 170.397 27.5893 167.942 27.5893H165.337L165.607 36.392H158.286L158.69 27.8138L158.286 7.4237L170.502 7.37879ZM169.244 22.3345C170.382 21.9453 171.221 21.3315 171.76 20.4931C172.328 19.6248 172.613 18.4871 172.613 17.0798C172.613 15.5827 172.239 14.4749 171.49 13.7563C170.772 13.0377 169.634 12.6485 168.077 12.5886L165.652 12.7233L165.427 22.1549L169.244 22.3345Z" fill="#88889B"/>
<path d="M191.4 27.0952L191.715 36.392H184.618L184.978 27.7689L184.708 5.35774L191.76 4.86371L191.4 27.0952Z" fill="#88889B"/>
<path d="M206.872 14.924C209.357 14.924 211.288 15.463 212.665 16.5409C214.043 17.5888 214.731 19.1009 214.731 21.077C214.731 21.7656 214.701 22.5591 214.642 23.4573C214.582 24.3556 214.537 25.2089 214.507 26.0173C214.357 28.1731 214.282 29.6552 214.282 30.4636C214.282 30.8828 214.342 31.1822 214.462 31.3619C214.612 31.5415 214.851 31.6314 215.181 31.6314C215.45 31.6314 215.779 31.5715 216.169 31.4517L216.663 31.8559L216.034 35.5836C215.046 36.2723 213.833 36.6765 212.396 36.7963C211.498 36.7064 210.734 36.392 210.105 35.8531C209.477 35.3141 209.028 34.5506 208.758 33.5626H208.444C206.947 35.1495 205.42 36.2423 203.863 36.8412C201.647 36.8112 199.895 36.2124 198.608 35.0447C197.35 33.877 196.722 32.2901 196.722 30.284C196.722 27.2 198.338 25.3886 201.572 24.8496L208.219 23.7268V22.4244C208.219 21.4962 208.01 20.8375 207.59 20.4482C207.201 20.029 206.557 19.8195 205.659 19.8195C204.761 19.8195 203.788 20.0141 202.74 20.4033C201.722 20.7926 200.539 21.4064 199.192 22.2447L198.743 21.9303L197.934 17.3044C199.282 16.5558 200.734 15.972 202.291 15.5528C203.848 15.1336 205.375 14.924 206.872 14.924ZM204.357 27.8138C203.908 27.9036 203.563 28.0833 203.324 28.3528C203.114 28.6222 203.009 29.0264 203.009 29.5654C203.009 30.284 203.189 30.8379 203.548 31.2271C203.938 31.6164 204.461 31.811 205.12 31.811C206.078 31.811 207.096 31.302 208.174 30.284L208.219 27.0503L204.357 27.8138Z" fill="#88889B"/>
<path d="M233.967 23.8616C234.027 21.7956 233.189 20.7626 231.452 20.7626C230.404 20.7626 229.267 21.2117 228.039 22.11V27.0952L228.353 36.392H221.257L221.572 27.8138L221.302 15.8223L228.084 15.2833V18.3823H228.353C229.97 16.8553 231.767 15.7624 233.743 15.1037C235.989 15.1037 237.695 15.6277 238.863 16.6756C240.061 17.6936 240.644 19.1607 240.614 21.077L240.435 27.0952L240.704 36.392H233.608L233.967 23.8616Z" fill="#88889B"/>
<path d="M263.572 27.0503L251.805 27.1401C252.014 28.6971 252.553 29.8498 253.421 30.5984C254.29 31.3469 255.517 31.7212 257.104 31.7212C258.691 31.7212 260.787 31.2571 263.392 30.3289L263.931 30.6882L262.853 35.7633C260.458 36.5118 258.287 36.8861 256.341 36.8861C252.897 36.8861 250.188 35.913 248.212 33.9668C246.265 32.0206 245.292 29.3408 245.292 25.9275C245.292 22.5142 246.236 19.8344 248.122 17.8882C250.008 15.9121 252.568 14.924 255.802 14.924C258.586 14.924 260.742 15.6726 262.269 17.1696C263.826 18.6667 264.605 20.7476 264.605 23.4124C264.605 24.2807 264.515 25.1939 264.335 26.1521L263.572 27.0503ZM258.452 22.6489C258.452 20.583 257.553 19.55 255.757 19.55C254.739 19.55 253.901 19.8943 253.242 20.583C252.583 21.2417 252.134 22.1998 251.894 23.4573L258.362 23.2777L258.452 22.6489Z" fill="#88889B"/>
<path d="M278.777 31.1822C279.675 31.1822 280.634 30.9577 281.652 30.5085L282.146 31.0475L281.472 35.1345C279.975 35.9729 278.418 36.4968 276.801 36.7064C274.615 36.5867 272.954 36.0178 271.816 34.9998C270.678 33.9518 270.109 32.5296 270.109 30.7331L270.334 26.6461L270.289 19.7745H267.504L267.28 19.4152L267.594 15.5528H270.244V11.9598L276.756 10.0286L277.25 10.4777L277.071 15.5528H282.011L282.235 15.957L281.921 19.7745H276.936L276.666 28.8468C276.666 29.7151 276.816 30.3289 277.115 30.6882C277.445 31.0176 277.999 31.1822 278.777 31.1822Z" fill="#88889B"/>
<path d="M4.07568 20.0957C5.83415 13.0262 11.4612 1.38226 25.1773 1.38226C38.8933 1.38226 45.3996 13.0262 46.2789 20.0957M46.2789 20.0957L39.6846 16.353M46.2789 20.0957L50.2354 13.8579" stroke="#88889B" stroke-width="2.49512"/>
<path d="M46.4927 25.086C44.7818 32.1555 39.3068 43.7994 25.9615 43.7994C12.6161 43.7994 6.28566 32.1555 5.43019 25.086M5.43019 25.086L11.8462 28.8287M5.43019 25.086L1.58058 31.3238" stroke="#88889B" stroke-width="2.49512"/>
</svg>
