<svg width="182" height="33" viewBox="0 0 182 33" fill="none" xmlns="http://www.w3.org/2000/svg">
<path d="M44.1008 5.93668H52.1351V31.7425H57.3312V5.93668H65.4092V1.17723H44.1008V5.93668Z" fill="#88889B"/>
<path d="M71.9643 16.4598C71.9643 14.8879 72.2117 13.447 72.7066 12.137C73.2306 10.798 73.9583 9.64817 74.8898 8.68755C75.8213 7.69781 76.913 6.94096 78.1647 6.41698C79.4455 5.8639 80.8573 5.58736 82.4001 5.58736C83.9138 5.58736 85.2966 5.8639 86.5483 6.41698C87.8291 6.94096 88.9353 7.69781 89.8668 8.68755C90.7983 9.64817 91.5115 10.798 92.0064 12.137C92.5012 13.447 92.7487 14.8879 92.7487 16.4598C92.7487 18.0318 92.4867 19.4873 91.9627 20.8263C91.4678 22.1362 90.7546 23.2861 89.8231 24.2758C88.8916 25.2364 87.7854 25.9933 86.5046 26.5464C85.2529 27.0703 83.8702 27.3323 82.3565 27.3323C80.8428 27.3323 79.4455 27.0703 78.1647 26.5464C76.913 25.9933 75.8213 25.2364 74.8898 24.2758C73.9583 23.2861 73.2306 22.1362 72.7066 20.8263C72.2117 19.4873 71.9643 18.0318 71.9643 16.4598ZM66.5062 16.4598C66.5062 18.7304 66.8992 20.8409 67.6852 22.7912C68.4711 24.7125 69.5773 26.4008 71.0037 27.8563C72.4301 29.2827 74.1039 30.4034 76.0251 31.2185C77.9464 32.0044 80.0568 32.3974 82.3565 32.3974C84.6561 32.3974 86.7666 32.0044 88.6878 31.2185C90.6382 30.4034 92.3266 29.2827 93.7529 27.8563C95.1793 26.4008 96.2855 24.7125 97.0714 22.7912C97.8574 20.8409 98.2504 18.7304 98.2504 16.4598C98.2504 14.1893 97.8574 12.0934 97.0714 10.1721C96.2855 8.22179 95.1648 6.54798 93.7093 5.15071C92.2829 3.72433 90.5945 2.61816 88.6442 1.8322C86.7229 1.04624 84.627 0.653259 82.3565 0.653259C80.0859 0.653259 77.99 1.04624 76.0688 1.8322C74.1475 2.61816 72.4592 3.72433 71.0037 5.15071C69.5773 6.54798 68.4711 8.22179 67.6852 10.1721C66.8992 12.0934 66.5062 14.1893 66.5062 16.4598Z" fill="#88889B"/>
<path d="M104.571 1.17723V31.7425H109.724V1.17723H104.571ZM107.628 5.71835H113.784C114.978 5.71835 116.011 5.90757 116.885 6.28599C117.758 6.66442 118.442 7.2175 118.937 7.94525C119.432 8.67299 119.679 9.58995 119.679 10.6961C119.679 11.7732 119.432 12.6901 118.937 13.447C118.442 14.1747 117.758 14.7278 116.885 15.1062C116.011 15.4556 114.978 15.6302 113.784 15.6302H107.628V20.1713H113.784C116.026 20.1713 117.962 19.7929 119.592 19.0361C121.222 18.2501 122.488 17.1585 123.391 15.7612C124.293 14.3348 124.744 12.6465 124.744 10.6961C124.744 8.74576 124.293 7.0574 123.391 5.63102C122.488 4.20465 121.222 3.11303 119.592 2.35618C117.962 1.57021 116.026 1.17723 113.784 1.17723H107.628V5.71835Z" fill="#88889B"/>
<path d="M130.906 1.17723V21.6996C130.906 23.388 131.168 24.9017 131.692 26.2407C132.245 27.5798 133.017 28.715 134.007 29.6466C134.996 30.5781 136.175 31.2913 137.543 31.7861C138.912 32.281 140.411 32.5284 142.041 32.5284C143.671 32.5284 145.17 32.281 146.538 31.7861C147.906 31.2913 149.085 30.5781 150.075 29.6466C151.065 28.715 151.822 27.5798 152.346 26.2407C152.899 24.9017 153.175 23.388 153.175 21.6996V1.17723H148.023V21.4813C148.023 22.733 147.79 23.8392 147.324 24.7998C146.888 25.7313 146.218 26.459 145.316 26.983C144.442 27.507 143.351 27.769 142.041 27.769C140.731 27.769 139.625 27.507 138.722 26.983C137.849 26.459 137.18 25.7313 136.714 24.7998C136.277 23.8392 136.059 22.733 136.059 21.4813V1.17723H130.906Z" fill="#88889B"/>
<path d="M161.09 1.17723V31.7425H166.242V1.17723H161.09ZM164.146 5.71835H170.303C171.496 5.71835 172.53 5.90757 173.403 6.28599C174.276 6.66442 174.96 7.2175 175.455 7.94525C175.95 8.67299 176.197 9.58995 176.197 10.6961C176.197 11.7732 175.95 12.6901 175.455 13.447C174.96 14.1747 174.276 14.7278 173.403 15.1062C172.53 15.4556 171.496 15.6302 170.303 15.6302H164.146V20.1713H170.303C172.544 20.1713 174.48 19.7929 176.11 19.0361C177.74 18.2501 179.007 17.1585 179.909 15.7612C180.811 14.3348 181.263 12.6465 181.263 10.6961C181.263 8.74576 180.811 7.0574 179.909 5.63102C179.007 4.20465 177.74 3.11303 176.11 2.35618C174.48 1.57021 172.544 1.17723 170.303 1.17723H164.146V5.71835Z" fill="#88889B"/>
<path fill-rule="evenodd" clip-rule="evenodd" d="M14.574 1.91467H0.086792V32.4432H32.5233V1.91467H18.0363L25.3934 10.0237H19.1673V28.6271H13.4432V10.0237H7.2169L14.574 1.91467Z" fill="#88889B"/>
</svg>
