<svg width="20" height="20" viewBox="0 0 20 20" fill="none" xmlns="http://www.w3.org/2000/svg">
<path d="M17.5 5.54213C16.9009 5.80721 16.2654 5.98085 15.6147 6.05721C16.2997 5.6472 16.8124 5.00238 17.0573 4.24274C16.413 4.62439 15.7086 4.89387 14.974 5.0397C14.524 4.55883 13.9396 4.22442 13.2969 4.07995C12.6542 3.93548 11.9829 3.98764 11.3702 4.22964C10.7575 4.47164 10.2319 4.89229 9.86161 5.43689C9.49134 5.98149 9.29356 6.62484 9.294 7.2833C9.294 7.54117 9.32267 7.79105 9.38067 8.03027C8.07501 7.96604 6.79754 7.62754 5.63152 7.03682C4.46551 6.44611 3.4371 5.61645 2.61333 4.60191C2.32065 5.10267 2.16714 5.6725 2.16867 6.25245C2.16867 7.38991 2.74667 8.39477 3.62933 8.98315C3.10797 8.96662 2.59817 8.8254 2.14267 8.57135V8.61333C2.14222 9.37108 2.40429 10.1056 2.88434 10.6921C3.3644 11.2786 4.03281 11.6808 4.776 11.8305C4.29271 11.9629 3.78541 11.9825 3.29333 11.8878C3.50294 12.5397 3.91103 13.1098 4.46059 13.5186C5.01015 13.9275 5.67374 14.1545 6.35867 14.168C5.67776 14.7022 4.89814 15.0969 4.06443 15.3296C3.23072 15.5623 2.35928 15.6284 1.5 15.524C3.00035 16.4891 4.74716 17.0015 6.53133 17C12.57 17 15.8727 11.9997 15.8727 7.66311C15.8727 7.52318 15.8673 7.37925 15.862 7.23865C16.5037 6.77424 17.0582 6.20012 17.5 5.54279V5.54213Z" fill="url(#paint0_linear_163_6)"/>
<defs>
<linearGradient id="paint0_linear_163_6" x1="9.5" y1="4" x2="9.5" y2="17" gradientUnits="userSpaceOnUse">
<stop stop-color="#5C43F6"/>
<stop offset="1" stop-color="#BC61F3"/>
</linearGradient>
</defs>
</svg>
