<svg width="20" height="20" viewBox="0 0 20 20" fill="none" xmlns="http://www.w3.org/2000/svg">
<path d="M19.0992 6.02959C18.991 5.63697 18.7793 5.27898 18.4852 4.99147C18.1911 4.70396 17.8248 4.49701 17.4232 4.39133C15.944 4 10 4 10 4C10 4 4.05603 4 2.57683 4.39133C2.17516 4.49701 1.80894 4.70396 1.51481 4.99147C1.22068 5.27898 1.00896 5.63697 0.900846 6.02959C0.624646 7.50421 0.490613 9.0009 0.500511 10.5C0.490613 11.9991 0.624646 13.4958 0.900846 14.9704C1.00896 15.363 1.22068 15.721 1.51481 16.0085C1.80894 16.296 2.17516 16.503 2.57683 16.6087C4.05603 17 10 17 10 17C10 17 15.944 17 17.4232 16.6087C17.8248 16.503 18.1911 16.296 18.4852 16.0085C18.7793 15.721 18.991 15.363 19.0992 14.9704C19.3754 13.4958 19.5094 11.9991 19.4995 10.5C19.5094 9.0009 19.3754 7.50421 19.0992 6.02959ZM8.1001 13.2857V7.71429L13.0331 10.5L8.1001 13.2857Z" fill="url(#paint0_linear_176_17)"/>
<defs>
<linearGradient id="paint0_linear_176_17" x1="10" y1="4" x2="10" y2="17" gradientUnits="userSpaceOnUse">
<stop stop-color="#5C43F6"/>
<stop offset="1" stop-color="#BC61F3"/>
</linearGradient>
</defs>
</svg>
